<svg width="24" height="24" viewBox="0 0 24 24" fill="none" xmlns="http://www.w3.org/2000/svg">
<path fill-rule="evenodd" clip-rule="evenodd" d="M3.25 18C3.25 18.4142 3.58579 18.75 4 18.75C4.41421 18.75 4.75 18.4142 4.75 18V4.75H18C18.4142 4.75 18.75 4.41421 18.75 4C18.75 3.58579 18.4142 3.25 18 3.25H4.6C3.85442 3.25 3.25 3.85441 3.25 4.6V18ZM20.25 7.75V16.9422L12.6926 14.2922C12.5363 14.2374 12.3663 14.2359 12.209 14.2879L7.75 15.7621V7.75H20.25ZM21.75 7.6V17.9817C21.7503 17.9938 21.7503 18.0061 21.75 18.0183V20.4C21.75 21.1456 21.1456 21.75 20.4 21.75H7.6C6.85441 21.75 6.25 21.1456 6.25 20.4V16.8164C6.24976 16.8054 6.24976 16.7943 6.25 16.7834V7.6C6.25 6.85441 6.85442 6.25 7.6 6.25H20.4C21.1456 6.25 21.75 6.85442 21.75 7.6ZM12.4374 15.7923L20.25 18.5318V20.25H7.75V17.342L12.4374 15.7923ZM17.25 11.5C17.25 11.0858 16.9142 10.75 16.5 10.75C16.0858 10.75 15.75 11.0858 15.75 11.5C15.75 11.9142 16.0858 12.25 16.5 12.25C16.9142 12.25 17.25 11.9142 17.25 11.5ZM16.5 9.25C17.7426 9.25 18.75 10.2574 18.75 11.5C18.75 12.7426 17.7426 13.75 16.5 13.75C15.2574 13.75 14.25 12.7426 14.25 11.5C14.25 10.2574 15.2574 9.25 16.5 9.25Z" fill="#292927"/>
</svg>
