<svg width="24" height="24" viewBox="0 0 24 24" fill="none" xmlns="http://www.w3.org/2000/svg">
<path fill-rule="evenodd" clip-rule="evenodd" d="M4 4.75C3.30964 4.75 2.75 5.30964 2.75 6V18C2.75 18.6904 3.30964 19.25 4 19.25H10C10.4142 19.25 10.75 19.5858 10.75 20C10.75 20.4142 10.4142 20.75 10 20.75H4C2.48122 20.75 1.25 19.5188 1.25 18V6C1.25 4.48122 2.48122 3.25 4 3.25H20C21.5188 3.25 22.75 4.48122 22.75 6V12.8571C22.75 13.2714 22.4142 13.6071 22 13.6071C21.5858 13.6071 21.25 13.2714 21.25 12.8571V6C21.25 5.30964 20.6904 4.75 20 4.75H4ZM6.35687 7.61413C6.56998 7.25894 7.03068 7.14377 7.38586 7.35688L12 10.1254L16.6141 7.35688C16.9693 7.14377 17.43 7.25894 17.6431 7.61413C17.8562 7.96931 17.741 8.43001 17.3859 8.64312L12.3859 11.6431C12.1484 11.7856 11.8516 11.7856 11.6141 11.6431L6.61412 8.64312C6.25893 8.43001 6.14376 7.96931 6.35687 7.61413ZM16.677 14.5336C16.9717 14.2425 16.9747 13.7677 16.6836 13.473C16.3925 13.1783 15.9177 13.1753 15.623 13.4664L12.473 16.5775C12.3303 16.7184 12.25 16.9106 12.25 17.1111C12.25 17.3116 12.3303 17.5038 12.473 17.6447L15.623 20.7558C15.9177 21.0469 16.3925 21.044 16.6836 20.7492C16.9747 20.4545 16.9717 19.9797 16.677 19.6886L14.8267 17.8611H19.3C20.0211 17.8611 20.4958 18.101 20.7898 18.4004C21.0918 18.708 21.25 19.1257 21.25 19.5556C21.25 19.9854 21.0918 20.4031 20.7898 20.7107C20.4958 21.0101 20.0211 21.25 19.3 21.25C18.8858 21.25 18.55 21.5858 18.55 22C18.55 22.4142 18.8858 22.75 19.3 22.75C20.3789 22.75 21.2542 22.3787 21.8602 21.7616C22.4582 21.1525 22.75 20.3479 22.75 19.5556C22.75 18.7632 22.4582 17.9587 21.8602 17.3496C21.2542 16.7324 20.3789 16.3611 19.3 16.3611H14.8267L16.677 14.5336Z" fill="#292927"/>
</svg>
