<svg width="24" height="24" viewBox="0 0 24 24" fill="none" xmlns="http://www.w3.org/2000/svg">
<path fill-rule="evenodd" clip-rule="evenodd" d="M7.21026 3.36156C8.47184 2.01587 10.1937 1.25 12.0001 1.25C12.3823 1.25 12.7613 1.28434 13.1331 1.35139C13.5408 1.42489 13.8116 1.81493 13.7382 2.22257C13.6647 2.63021 13.2746 2.90108 12.867 2.82759C12.5823 2.77626 12.2924 2.75 12.0001 2.75C10.6239 2.75 9.29342 3.33269 8.30457 4.38747C7.31417 5.44389 6.75005 6.88647 6.75005 8.4C6.75005 12.2361 5.97869 14.7558 5.16781 16.3415C4.99009 16.689 4.81108 16.9905 4.63891 17.25H11.977C11.9847 17.2498 11.9925 17.2496 12.0002 17.2496H19.3614C19.1892 16.9901 19.0102 16.6887 18.8325 16.3411C18.2213 15.1459 17.6325 13.42 17.3796 10.9996C17.2803 10.0488 18.7828 9.99961 18.8727 10.855C19.1087 13.1025 19.6495 14.6443 20.168 15.6582C20.5133 16.3334 20.8519 16.781 21.0923 17.0516C21.2126 17.1871 21.3088 17.2788 21.3696 17.3328C21.4 17.3599 21.4216 17.3775 21.4329 17.3865L21.4417 17.3933C21.7027 17.5833 21.8131 17.9196 21.7147 18.2278C21.6154 18.5386 21.3266 18.7496 21.0002 18.7496H12.0233C12.0156 18.7499 12.0078 18.75 12.0001 18.75H3.00005C2.67373 18.75 2.38485 18.539 2.28559 18.2281C2.18718 17.9199 2.29755 17.5837 2.55863 17.3937L2.56735 17.3869C2.57869 17.3779 2.60028 17.3602 2.63069 17.3332C2.69148 17.2792 2.7877 17.1875 2.90804 17.052C3.14835 16.7814 3.48701 16.3338 3.8323 15.6585C4.52142 14.3109 5.25005 12.0306 5.25005 8.4C5.25005 6.51876 5.95021 4.70561 7.21026 3.36156ZM16.7501 5C16.7501 3.75736 17.7574 2.75 19.0001 2.75C20.2427 2.75 21.2501 3.75736 21.2501 5C21.2501 6.24264 20.2427 7.25 19.0001 7.25C17.7574 7.25 16.7501 6.24264 16.7501 5ZM19.0001 1.25C16.929 1.25 15.2501 2.92893 15.2501 5C15.2501 7.07107 16.929 8.75 19.0001 8.75C21.0711 8.75 22.7501 7.07107 22.7501 5C22.7501 2.92893 21.0711 1.25 19.0001 1.25ZM10.9188 20.6238C10.711 20.2655 10.252 20.1435 9.89375 20.3514C9.53545 20.5592 9.41348 21.0182 9.62132 21.3765C9.86306 21.7932 10.21 22.1391 10.6275 22.3796C11.045 22.62 11.5183 22.7466 12.0001 22.7466C12.4818 22.7466 12.9552 22.62 13.3726 22.3796C13.7901 22.1391 14.1371 21.7932 14.3788 21.3765C14.5867 21.0182 14.4647 20.5592 14.1064 20.3514C13.7481 20.1435 13.2892 20.2655 13.0813 20.6238C12.9714 20.8132 12.8137 20.9705 12.624 21.0798C12.4342 21.1891 12.2191 21.2466 12.0001 21.2466C11.7811 21.2466 11.5659 21.1891 11.3762 21.0798C11.1864 20.9705 11.0287 20.8132 10.9188 20.6238Z" fill="#292927"/>
</svg>
