<svg width="24" height="24" viewBox="0 0 24 24" fill="none" xmlns="http://www.w3.org/2000/svg">
<path fill-rule="evenodd" clip-rule="evenodd" d="M10.981 1.25C10.6403 1.25 10.3424 1.47964 10.2557 1.80912L9.7177 3.85337L7.84921 4.64101L6.49844 3.43959C6.20166 3.17562 5.75053 3.18881 5.46967 3.46967L3.46967 5.46967C3.19791 5.74143 3.17556 6.17464 3.4179 6.47293L4.59144 7.91735L3.82402 9.80418L1.82955 10.2696C1.49012 10.3488 1.25 10.6515 1.25 11V13C1.25 13.3381 1.47627 13.6345 1.80248 13.7235L3.8517 14.283L4.64057 16.1544L3.44016 17.5009C3.17563 17.7976 3.18858 18.2492 3.46967 18.5303L5.46967 20.5303C5.74173 20.8024 6.17554 20.8245 6.4738 20.5814L7.9188 19.4038L9.76234 20.1622L10.2728 22.1836C10.3569 22.5167 10.6565 22.75 11 22.75H13C13.3433 22.75 13.6428 22.5169 13.727 22.1841L14.2392 20.1621L16.1369 19.3762C16.3307 19.5361 16.5687 19.7399 16.8008 19.9419C16.989 20.1057 17.1639 20.2601 17.2918 20.3735C17.3557 20.4302 17.4077 20.4766 17.4437 20.5087L17.4993 20.5584C17.7958 20.8243 18.2486 20.812 18.5303 20.5303L20.5303 18.5303C20.8063 18.2543 20.8245 17.8127 20.5721 17.515L19.3839 16.1135L20.164 14.2299L22.1887 13.703C22.5192 13.617 22.7499 13.3187 22.7499 12.9772L22.75 11C22.75 10.657 22.5173 10.3577 22.1848 10.2731L20.1715 9.76116L19.3925 7.88007L20.5727 6.48425C20.8245 6.18646 20.8061 5.74542 20.5303 5.46967L18.5303 3.46967C18.2535 3.19285 17.8104 3.17551 17.5127 3.42984L16.126 4.61496L14.1883 3.8181L13.6607 1.80947C13.5741 1.47982 13.2762 1.25 12.9353 1.25H10.981ZM11.0744 4.592L11.5591 2.75H12.3569L12.8324 4.56027C12.8921 4.7877 13.055 4.97394 13.2725 5.06337L15.9795 6.17659C16.2397 6.28363 16.538 6.23595 16.752 6.05312L17.96 5.02071L18.9819 6.04253L17.952 7.26055C17.7708 7.47487 17.7244 7.77244 17.8318 8.03175L18.9294 10.6823C19.0199 10.9009 19.2083 11.064 19.4375 11.1223L21.25 11.5831L21.2499 12.3974L19.425 12.8722C19.1975 12.9314 19.0109 13.0939 18.9209 13.3111L17.823 15.9625C17.7155 16.2221 17.7621 16.5201 17.9438 16.7344L18.9812 17.9581L17.9688 18.9705C17.9101 18.919 17.8486 18.8653 17.7856 18.8105C17.4134 18.4865 16.9476 18.0886 16.6913 17.9054C16.4807 17.7549 16.2073 17.7236 15.9682 17.8226L13.3176 18.9203C13.0988 19.0109 12.9356 19.1995 12.8775 19.429L12.4163 21.25H11.5841L11.1242 19.4287C11.066 19.1983 10.9021 19.0091 10.6824 18.9187L8.07651 17.8467C7.82203 17.742 7.53067 17.7851 7.31736 17.9589L6.05132 18.9907L5.03111 17.9704L6.07559 16.7988C6.2682 16.5828 6.31929 16.2751 6.20686 16.0084L5.09222 13.3642C5.00277 13.152 4.82079 12.9926 4.59864 12.932L2.75 12.4273V11.5951L4.54295 11.1767C4.78003 11.1214 4.97551 10.9544 5.06724 10.7289L6.1481 8.07141C6.25121 7.81789 6.20804 7.52833 6.03546 7.31592L5.00862 6.05204L6.03013 5.03053L7.20597 6.07637C7.42202 6.26853 7.7293 6.31938 7.99574 6.20707L10.6404 5.09223C10.8548 5.00184 11.0152 4.81704 11.0744 4.592ZM9.75 12C9.75 10.7574 10.7574 9.75 12 9.75C13.2426 9.75 14.25 10.7574 14.25 12C14.25 13.2426 13.2426 14.25 12 14.25C10.7574 14.25 9.75 13.2426 9.75 12ZM12 8.25C9.92893 8.25 8.25 9.92893 8.25 12C8.25 14.0711 9.92893 15.75 12 15.75C14.0711 15.75 15.75 14.0711 15.75 12C15.75 9.92893 14.0711 8.25 12 8.25Z" fill="#292927"/>
</svg>
